<svg width="192" height="192" viewBox="0 0 192 192" fill="none" xmlns="http://www.w3.org/2000/svg">
<path fill-rule="evenodd" clip-rule="evenodd" d="M96 176C51.8172 176 16 140.183 16 96C16 51.8172 51.8172 16 96 16C140.183 16 176 51.8172 176 96C176 121.973 163.622 145.056 144.444 159.67C144.548 159.553 144.652 159.435 144.755 159.317C155.616 146.905 161 130.418 161 114C161 97.5823 155.616 81.0948 144.755 68.683C133.861 56.232 117.554 48 96 48C69.4903 48 48 69.4903 48 96C48 122.51 69.4903 144 96 144C122.51 144 144 122.51 144 96C144 81.4417 137.519 68.3971 127.284 59.5943C132.914 62.7388 137.731 66.7296 141.745 71.317C151.884 82.9052 157 98.4177 157 114C157 129.582 151.884 145.095 141.745 156.683C131.639 168.232 116.446 176 96 176Z" fill="#023347"/>
</svg>
